# xmcd CD database file
#
# Track frame offsets:
#	150
#	27291
#	50806
#	62572
#	85504
#	109067
#	128454
#	142547
#	162566
#	173930
#	191922
#	206252
#	224487
#	235570
#	256604
#	281579
#	295309
#	311464
#	338912
#
# Disc length: 4777 seconds
#
# Revision: 0
# Processed by: cddbd v1.5.1PL0 Copyright (c) Steve Scherf et al.
# Submitted via: CDex 1.51
#
DISCID=0c12a713
DTITLE=Duke Ellington - The Duke Ellington Collection
DYEAR=2004
DGENRE=Jazz
TTITLE0=In The Mood
TTITLE1=One Oclock Jump
TTITLE2=Do Nothing Till You Hear From Me
TTITLE3=Stompin At The Savoy
TTITLE4=Take The A Train
TTITLE5=Honeysuckle Rose
TTITLE6=Im Just a Lucky So And So
TTITLE7=Perdido
TTITLE8=In A Sentimental Mood
TTITLE9=Mood Indigo
TTITLE10=Stormy Weather
TTITLE11=On The Sunny Side Of The Street
TTITLE12=Stardust
TTITLE13=Satin Doll
TTITLE14=Solitude
TTITLE15=Prelude To A Kiss
TTITLE16=Sophisticated Lady
TTITLE17=Dont Get Around Much Any More
TTITLE18=Copy Protection Player
EXTD=YEAR: 2004
EXTT0=
EXTT1=
EXTT2=
EXTT3=
EXTT4=
EXTT5=
EXTT6=
EXTT7=
EXTT8=
EXTT9=
EXTT10=
EXTT11=
EXTT12=
EXTT13=
EXTT14=
EXTT15=
EXTT16=
EXTT17=
EXTT18=
PLAYORDER=
